<mxfile host="app.diagrams.net" modified="2024-05-31T10:01:42.182Z" agent="Mozilla/5.0 (Macintosh; Intel Mac OS X 10_15_7) AppleWebKit/537.36 (KHTML, like Gecko) Chrome/125.0.0.0 Safari/537.36" etag="Cbl08PrNL5bovxMotJTE" version="24.4.9" type="github">
  <diagram id="C5RBs43oDa-KdzZeNtuy" name="Page-1">
    <mxGraphModel dx="1752" dy="491" grid="1" gridSize="10" guides="1" tooltips="1" connect="1" arrows="1" fold="1" page="1" pageScale="1" pageWidth="827" pageHeight="1169" math="0" shadow="0">
      <root>
        <mxCell id="WIyWlLk6GJQsqaUBKTNV-0" />
        <mxCell id="WIyWlLk6GJQsqaUBKTNV-1" parent="WIyWlLk6GJQsqaUBKTNV-0" />
        <mxCell id="chA8V7Ig7ssHcd86SWjw-2" value="" style="edgeStyle=orthogonalEdgeStyle;rounded=0;orthogonalLoop=1;jettySize=auto;html=1;" parent="WIyWlLk6GJQsqaUBKTNV-1" source="chA8V7Ig7ssHcd86SWjw-0" target="chA8V7Ig7ssHcd86SWjw-1" edge="1">
          <mxGeometry relative="1" as="geometry" />
        </mxCell>
        <mxCell id="chA8V7Ig7ssHcd86SWjw-0" value="agent提示输入学号" style="strokeWidth=2;html=1;shape=mxgraph.flowchart.start_1;whiteSpace=wrap;" parent="WIyWlLk6GJQsqaUBKTNV-1" vertex="1">
          <mxGeometry x="90" y="20" width="100" height="60" as="geometry" />
        </mxCell>
        <mxCell id="chA8V7Ig7ssHcd86SWjw-4" value="" style="edgeStyle=orthogonalEdgeStyle;rounded=0;orthogonalLoop=1;jettySize=auto;html=1;" parent="WIyWlLk6GJQsqaUBKTNV-1" source="chA8V7Ig7ssHcd86SWjw-1" target="chA8V7Ig7ssHcd86SWjw-3" edge="1">
          <mxGeometry relative="1" as="geometry" />
        </mxCell>
        <mxCell id="chA8V7Ig7ssHcd86SWjw-5" value="Yes" style="edgeLabel;html=1;align=center;verticalAlign=middle;resizable=0;points=[];" parent="chA8V7Ig7ssHcd86SWjw-4" vertex="1" connectable="0">
          <mxGeometry x="-0.0222" y="-2" relative="1" as="geometry">
            <mxPoint as="offset" />
          </mxGeometry>
        </mxCell>
        <mxCell id="chA8V7Ig7ssHcd86SWjw-44" value="" style="edgeStyle=orthogonalEdgeStyle;rounded=0;orthogonalLoop=1;jettySize=auto;html=1;" parent="WIyWlLk6GJQsqaUBKTNV-1" source="chA8V7Ig7ssHcd86SWjw-1" target="chA8V7Ig7ssHcd86SWjw-43" edge="1">
          <mxGeometry relative="1" as="geometry" />
        </mxCell>
        <mxCell id="chA8V7Ig7ssHcd86SWjw-45" value="No" style="edgeLabel;html=1;align=center;verticalAlign=middle;resizable=0;points=[];" parent="chA8V7Ig7ssHcd86SWjw-44" vertex="1" connectable="0">
          <mxGeometry x="-0.2333" y="3" relative="1" as="geometry">
            <mxPoint y="-3" as="offset" />
          </mxGeometry>
        </mxCell>
        <mxCell id="chA8V7Ig7ssHcd86SWjw-1" value="是否有学号" style="rhombus;whiteSpace=wrap;html=1;strokeWidth=2;" parent="WIyWlLk6GJQsqaUBKTNV-1" vertex="1">
          <mxGeometry x="100" y="120" width="80" height="80" as="geometry" />
        </mxCell>
        <mxCell id="chA8V7Ig7ssHcd86SWjw-9" value="" style="edgeStyle=orthogonalEdgeStyle;rounded=0;orthogonalLoop=1;jettySize=auto;html=1;" parent="WIyWlLk6GJQsqaUBKTNV-1" source="chA8V7Ig7ssHcd86SWjw-3" target="chA8V7Ig7ssHcd86SWjw-8" edge="1">
          <mxGeometry relative="1" as="geometry" />
        </mxCell>
        <mxCell id="chA8V7Ig7ssHcd86SWjw-3" value="agent从mongo中&lt;div&gt;查询已学习的知识体系和进度&lt;/div&gt;" style="whiteSpace=wrap;html=1;strokeWidth=2;" parent="WIyWlLk6GJQsqaUBKTNV-1" vertex="1">
          <mxGeometry x="80" y="250" width="120" height="60" as="geometry" />
        </mxCell>
        <mxCell id="chA8V7Ig7ssHcd86SWjw-19" style="edgeStyle=orthogonalEdgeStyle;rounded=0;orthogonalLoop=1;jettySize=auto;html=1;exitX=0.5;exitY=1;exitDx=0;exitDy=0;entryX=1;entryY=0.5;entryDx=0;entryDy=0;" parent="WIyWlLk6GJQsqaUBKTNV-1" source="chA8V7Ig7ssHcd86SWjw-6" target="chA8V7Ig7ssHcd86SWjw-17" edge="1">
          <mxGeometry relative="1" as="geometry" />
        </mxCell>
        <mxCell id="chA8V7Ig7ssHcd86SWjw-6" value="agent获取学习进度和目录结构的知识体系，查询下一步要学习的知识" style="whiteSpace=wrap;html=1;strokeWidth=2;" parent="WIyWlLk6GJQsqaUBKTNV-1" vertex="1">
          <mxGeometry x="294" y="480" width="120" height="60" as="geometry" />
        </mxCell>
        <mxCell id="chA8V7Ig7ssHcd86SWjw-11" value="" style="edgeStyle=orthogonalEdgeStyle;rounded=0;orthogonalLoop=1;jettySize=auto;html=1;" parent="WIyWlLk6GJQsqaUBKTNV-1" source="chA8V7Ig7ssHcd86SWjw-8" target="chA8V7Ig7ssHcd86SWjw-10" edge="1">
          <mxGeometry relative="1" as="geometry" />
        </mxCell>
        <mxCell id="chA8V7Ig7ssHcd86SWjw-8" value="用户选择继续学习哪个知识体系，或者开启一个新知识体系" style="whiteSpace=wrap;html=1;strokeWidth=2;" parent="WIyWlLk6GJQsqaUBKTNV-1" vertex="1">
          <mxGeometry x="80" y="350" width="120" height="60" as="geometry" />
        </mxCell>
        <mxCell id="chA8V7Ig7ssHcd86SWjw-12" style="edgeStyle=orthogonalEdgeStyle;rounded=0;orthogonalLoop=1;jettySize=auto;html=1;exitX=1;exitY=0.5;exitDx=0;exitDy=0;entryX=0;entryY=0.5;entryDx=0;entryDy=0;" parent="WIyWlLk6GJQsqaUBKTNV-1" source="chA8V7Ig7ssHcd86SWjw-10" target="chA8V7Ig7ssHcd86SWjw-6" edge="1">
          <mxGeometry relative="1" as="geometry" />
        </mxCell>
        <mxCell id="chA8V7Ig7ssHcd86SWjw-13" value="No" style="edgeLabel;html=1;align=center;verticalAlign=middle;resizable=0;points=[];" parent="chA8V7Ig7ssHcd86SWjw-12" vertex="1" connectable="0">
          <mxGeometry x="0.0192" y="1" relative="1" as="geometry">
            <mxPoint as="offset" />
          </mxGeometry>
        </mxCell>
        <mxCell id="chA8V7Ig7ssHcd86SWjw-15" value="" style="edgeStyle=orthogonalEdgeStyle;rounded=0;orthogonalLoop=1;jettySize=auto;html=1;" parent="WIyWlLk6GJQsqaUBKTNV-1" source="chA8V7Ig7ssHcd86SWjw-10" target="chA8V7Ig7ssHcd86SWjw-14" edge="1">
          <mxGeometry relative="1" as="geometry" />
        </mxCell>
        <mxCell id="chA8V7Ig7ssHcd86SWjw-16" value="Yes" style="edgeLabel;html=1;align=center;verticalAlign=middle;resizable=0;points=[];" parent="chA8V7Ig7ssHcd86SWjw-15" vertex="1" connectable="0">
          <mxGeometry x="-0.16" y="2" relative="1" as="geometry">
            <mxPoint as="offset" />
          </mxGeometry>
        </mxCell>
        <mxCell id="chA8V7Ig7ssHcd86SWjw-10" value="是否开启&lt;span style=&quot;background-color: initial;&quot;&gt;学习&lt;/span&gt;&lt;div&gt;&lt;span style=&quot;background-color: initial;&quot;&gt;新知识体系&lt;/span&gt;&lt;/div&gt;" style="rhombus;whiteSpace=wrap;html=1;strokeWidth=2;" parent="WIyWlLk6GJQsqaUBKTNV-1" vertex="1">
          <mxGeometry x="90" y="460" width="100" height="100" as="geometry" />
        </mxCell>
        <mxCell id="chA8V7Ig7ssHcd86SWjw-18" value="" style="edgeStyle=orthogonalEdgeStyle;rounded=0;orthogonalLoop=1;jettySize=auto;html=1;" parent="WIyWlLk6GJQsqaUBKTNV-1" source="chA8V7Ig7ssHcd86SWjw-14" target="chA8V7Ig7ssHcd86SWjw-17" edge="1">
          <mxGeometry relative="1" as="geometry" />
        </mxCell>
        <mxCell id="chA8V7Ig7ssHcd86SWjw-14" value="llm根据用户输入，列出要学习的知识体系" style="whiteSpace=wrap;html=1;strokeWidth=2;" parent="WIyWlLk6GJQsqaUBKTNV-1" vertex="1">
          <mxGeometry x="80" y="620" width="120" height="60" as="geometry" />
        </mxCell>
        <mxCell id="chA8V7Ig7ssHcd86SWjw-36" style="edgeStyle=orthogonalEdgeStyle;rounded=0;orthogonalLoop=1;jettySize=auto;html=1;exitX=0.5;exitY=1;exitDx=0;exitDy=0;entryX=0.5;entryY=0;entryDx=0;entryDy=0;" parent="WIyWlLk6GJQsqaUBKTNV-1" source="chA8V7Ig7ssHcd86SWjw-17" target="chA8V7Ig7ssHcd86SWjw-20" edge="1">
          <mxGeometry relative="1" as="geometry" />
        </mxCell>
        <mxCell id="chA8V7Ig7ssHcd86SWjw-17" value="用户选择深一层要&lt;div&gt;学习的分支&lt;/div&gt;" style="whiteSpace=wrap;html=1;strokeWidth=2;" parent="WIyWlLk6GJQsqaUBKTNV-1" vertex="1">
          <mxGeometry x="80" y="740" width="120" height="60" as="geometry" />
        </mxCell>
        <mxCell id="chA8V7Ig7ssHcd86SWjw-37" style="edgeStyle=orthogonalEdgeStyle;rounded=0;orthogonalLoop=1;jettySize=auto;html=1;exitX=0.5;exitY=1;exitDx=0;exitDy=0;entryX=0.5;entryY=0;entryDx=0;entryDy=0;" parent="WIyWlLk6GJQsqaUBKTNV-1" source="chA8V7Ig7ssHcd86SWjw-20" target="chA8V7Ig7ssHcd86SWjw-34" edge="1">
          <mxGeometry relative="1" as="geometry" />
        </mxCell>
        <mxCell id="chA8V7Ig7ssHcd86SWjw-20" value="llm返回分支&lt;div&gt;知识体系&lt;/div&gt;" style="whiteSpace=wrap;html=1;strokeWidth=2;" parent="WIyWlLk6GJQsqaUBKTNV-1" vertex="1">
          <mxGeometry x="80" y="860" width="120" height="60" as="geometry" />
        </mxCell>
        <mxCell id="chA8V7Ig7ssHcd86SWjw-24" style="edgeStyle=orthogonalEdgeStyle;rounded=0;orthogonalLoop=1;jettySize=auto;html=1;exitX=0;exitY=0.5;exitDx=0;exitDy=0;entryX=0;entryY=0.5;entryDx=0;entryDy=0;" parent="WIyWlLk6GJQsqaUBKTNV-1" source="chA8V7Ig7ssHcd86SWjw-22" target="chA8V7Ig7ssHcd86SWjw-17" edge="1">
          <mxGeometry relative="1" as="geometry">
            <Array as="points">
              <mxPoint x="10" y="1130" />
              <mxPoint x="10" y="770" />
            </Array>
          </mxGeometry>
        </mxCell>
        <mxCell id="chA8V7Ig7ssHcd86SWjw-25" value="No" style="edgeLabel;html=1;align=center;verticalAlign=middle;resizable=0;points=[];" parent="chA8V7Ig7ssHcd86SWjw-24" vertex="1" connectable="0">
          <mxGeometry x="-0.7949" y="1" relative="1" as="geometry">
            <mxPoint as="offset" />
          </mxGeometry>
        </mxCell>
        <mxCell id="chA8V7Ig7ssHcd86SWjw-27" value="" style="edgeStyle=orthogonalEdgeStyle;rounded=0;orthogonalLoop=1;jettySize=auto;html=1;" parent="WIyWlLk6GJQsqaUBKTNV-1" source="chA8V7Ig7ssHcd86SWjw-22" target="chA8V7Ig7ssHcd86SWjw-26" edge="1">
          <mxGeometry relative="1" as="geometry" />
        </mxCell>
        <mxCell id="chA8V7Ig7ssHcd86SWjw-47" value="Yes" style="edgeLabel;html=1;align=center;verticalAlign=middle;resizable=0;points=[];" parent="chA8V7Ig7ssHcd86SWjw-27" vertex="1" connectable="0">
          <mxGeometry x="0.04" y="1" relative="1" as="geometry">
            <mxPoint x="-1" y="-6" as="offset" />
          </mxGeometry>
        </mxCell>
        <mxCell id="chA8V7Ig7ssHcd86SWjw-22" value="是否&lt;div&gt;结束学习&lt;/div&gt;" style="rhombus;whiteSpace=wrap;html=1;strokeWidth=2;" parent="WIyWlLk6GJQsqaUBKTNV-1" vertex="1">
          <mxGeometry x="100" y="1090" width="80" height="80" as="geometry" />
        </mxCell>
        <mxCell id="chA8V7Ig7ssHcd86SWjw-29" value="" style="edgeStyle=orthogonalEdgeStyle;rounded=0;orthogonalLoop=1;jettySize=auto;html=1;" parent="WIyWlLk6GJQsqaUBKTNV-1" source="chA8V7Ig7ssHcd86SWjw-26" target="chA8V7Ig7ssHcd86SWjw-28" edge="1">
          <mxGeometry relative="1" as="geometry" />
        </mxCell>
        <mxCell id="chA8V7Ig7ssHcd86SWjw-26" value="llm列出今天学习的知识体系树相关的测试选择题" style="whiteSpace=wrap;html=1;strokeWidth=2;" parent="WIyWlLk6GJQsqaUBKTNV-1" vertex="1">
          <mxGeometry x="80" y="1220" width="120" height="60" as="geometry" />
        </mxCell>
        <mxCell id="chA8V7Ig7ssHcd86SWjw-33" value="" style="edgeStyle=orthogonalEdgeStyle;rounded=0;orthogonalLoop=1;jettySize=auto;html=1;" parent="WIyWlLk6GJQsqaUBKTNV-1" source="chA8V7Ig7ssHcd86SWjw-28" target="chA8V7Ig7ssHcd86SWjw-32" edge="1">
          <mxGeometry relative="1" as="geometry" />
        </mxCell>
        <mxCell id="chA8V7Ig7ssHcd86SWjw-28" value="用户作答" style="whiteSpace=wrap;html=1;strokeWidth=2;" parent="WIyWlLk6GJQsqaUBKTNV-1" vertex="1">
          <mxGeometry x="80" y="1330" width="120" height="60" as="geometry" />
        </mxCell>
        <mxCell id="chA8V7Ig7ssHcd86SWjw-40" value="" style="edgeStyle=orthogonalEdgeStyle;rounded=0;orthogonalLoop=1;jettySize=auto;html=1;" parent="WIyWlLk6GJQsqaUBKTNV-1" source="chA8V7Ig7ssHcd86SWjw-32" target="chA8V7Ig7ssHcd86SWjw-39" edge="1">
          <mxGeometry relative="1" as="geometry" />
        </mxCell>
        <mxCell id="chA8V7Ig7ssHcd86SWjw-32" value="llm评分并总结&lt;div&gt;今天学习不到位的点&lt;/div&gt;" style="whiteSpace=wrap;html=1;strokeWidth=2;" parent="WIyWlLk6GJQsqaUBKTNV-1" vertex="1">
          <mxGeometry x="80" y="1440" width="120" height="60" as="geometry" />
        </mxCell>
        <mxCell id="chA8V7Ig7ssHcd86SWjw-38" style="edgeStyle=orthogonalEdgeStyle;rounded=0;orthogonalLoop=1;jettySize=auto;html=1;exitX=0.5;exitY=1;exitDx=0;exitDy=0;entryX=0.5;entryY=0;entryDx=0;entryDy=0;" parent="WIyWlLk6GJQsqaUBKTNV-1" source="chA8V7Ig7ssHcd86SWjw-34" target="chA8V7Ig7ssHcd86SWjw-22" edge="1">
          <mxGeometry relative="1" as="geometry" />
        </mxCell>
        <mxCell id="chA8V7Ig7ssHcd86SWjw-34" value="agent完善已学知识体系，记录到mongo" style="whiteSpace=wrap;html=1;strokeWidth=2;" parent="WIyWlLk6GJQsqaUBKTNV-1" vertex="1">
          <mxGeometry x="80" y="980" width="120" height="60" as="geometry" />
        </mxCell>
        <mxCell id="chA8V7Ig7ssHcd86SWjw-42" style="edgeStyle=orthogonalEdgeStyle;rounded=0;orthogonalLoop=1;jettySize=auto;html=1;exitX=0.5;exitY=1;exitDx=0;exitDy=0;" parent="WIyWlLk6GJQsqaUBKTNV-1" source="chA8V7Ig7ssHcd86SWjw-39" target="chA8V7Ig7ssHcd86SWjw-41" edge="1">
          <mxGeometry relative="1" as="geometry" />
        </mxCell>
        <mxCell id="chA8V7Ig7ssHcd86SWjw-39" value="agent记录本次学习的评分和总结" style="whiteSpace=wrap;html=1;strokeWidth=2;" parent="WIyWlLk6GJQsqaUBKTNV-1" vertex="1">
          <mxGeometry x="80" y="1550" width="120" height="60" as="geometry" />
        </mxCell>
        <mxCell id="chA8V7Ig7ssHcd86SWjw-41" value="结束" style="strokeWidth=2;html=1;shape=mxgraph.flowchart.terminator;whiteSpace=wrap;" parent="WIyWlLk6GJQsqaUBKTNV-1" vertex="1">
          <mxGeometry x="90" y="1660" width="100" height="60" as="geometry" />
        </mxCell>
        <mxCell id="chA8V7Ig7ssHcd86SWjw-46" style="edgeStyle=orthogonalEdgeStyle;rounded=0;orthogonalLoop=1;jettySize=auto;html=1;exitX=0.5;exitY=1;exitDx=0;exitDy=0;entryX=0;entryY=0.5;entryDx=0;entryDy=0;" parent="WIyWlLk6GJQsqaUBKTNV-1" source="chA8V7Ig7ssHcd86SWjw-43" target="chA8V7Ig7ssHcd86SWjw-8" edge="1">
          <mxGeometry relative="1" as="geometry" />
        </mxCell>
        <mxCell id="chA8V7Ig7ssHcd86SWjw-43" value="创建学号，&lt;div&gt;记录到mongo&lt;/div&gt;" style="whiteSpace=wrap;html=1;strokeWidth=2;" parent="WIyWlLk6GJQsqaUBKTNV-1" vertex="1">
          <mxGeometry x="-90" y="130" width="120" height="60" as="geometry" />
        </mxCell>
        <mxCell id="chA8V7Ig7ssHcd86SWjw-48" value="&lt;ol&gt;&lt;li&gt;python画脑图展示&lt;/li&gt;&lt;li&gt;按目录结构展示&lt;/li&gt;&lt;li&gt;标识当前学习位置&lt;/li&gt;&lt;li&gt;展示之前学习不到位的点&lt;/li&gt;&lt;/ol&gt;" style="text;strokeColor=none;fillColor=none;html=1;whiteSpace=wrap;verticalAlign=top;overflow=hidden;horizontal=1;spacingTop=0;" parent="WIyWlLk6GJQsqaUBKTNV-1" vertex="1">
          <mxGeometry x="200" y="230" width="180" height="80" as="geometry" />
        </mxCell>
      </root>
    </mxGraphModel>
  </diagram>
</mxfile>
